# ASF file generated by Tido's ASF writer for MATLAB.
:version 1.10
:name VICON
:units
  mass 1
  length 0.45000000000000001
  angle deg
:documentation
   .ast/.asf automatically generated from VICON data using
   VICON BodyBuilder and BodyLanguage model FoxedUp or BRILLIANT.MOD
:root
  axis xyz
  order tx ty tz rx ry rz 
  position 0 0 0
  orientation 0 0 0
:bonedata
  begin
    id 1
    name lhipjoint
    direction 0.44017800000000001 -0.82263900000000001 0.359871
    length 1.1390085000000001
    axis 0 0 0 xyz
  end
  begin
    id 2
    name lfemur
    direction 0.34201999999999999 -0.939693 0
    length 3.5465939999999998
    axis 0 0 20 xyz
    dof rx ry rz 
    limits (-160 20)
           (-70 70)
           (-60 70)
  end
  begin
    id 3
    name ltibia
    direction 0.34201999999999999 -0.939693 0
    length 3.7970234999999999
    axis 0 0 20 xyz
    dof rx 
    limits (-10 170)
  end
  begin
    id 4
    name lfoot
    direction 0.088635099999999994 -0.24352299999999999 0.96583699999999995
    length 1.1853629999999999
    axis -90 7.62852e-016 20 xyz
    dof rx rz 
    limits (-45 90)
           (-70 20)
  end
  begin
    id 5
    name ltoes
    direction 1.53703e-011 -4.2171700000000001e-011 1
    length 0.59142150000000004
    axis -90 7.62852e-016 20 xyz
    dof rx 
    limits (-90 20)
  end
  begin
    id 6
    name rhipjoint
    direction -0.399779 -0.83977299999999999 0.367367
    length 1.115766
    axis 0 0 0 xyz
  end
  begin
    id 7
    name rfemur
    direction -0.34201999999999999 -0.939693 0
    length 3.4866269999999999
    axis 0 0 -20 xyz
    dof rx ry rz 
    limits (-160 20)
           (-70 70)
           (-70 60)
  end
  begin
    id 8
    name rtibia
    direction -0.34201999999999999 -0.939693 0
    length 3.9349440000000002
    axis 0 0 -20 xyz
    dof rx 
    limits (-10 170)
  end
  begin
    id 9
    name rfoot
    direction -0.108514 -0.29813899999999999 0.94833400000000001
    length 1.1974590000000001
    axis -90 -7.62852e-016 -20 xyz
    dof rx rz 
    limits (-45 90)
           (-20 70)
  end
  begin
    id 10
    name rtoes
    direction -1.5339199999999999e-011 -4.2207699999999999e-011 1
    length 0.59392350000000005
    axis -90 -7.62852e-016 -20 xyz
    dof rx 
    limits (-90 20)
  end
  begin
    id 11
    name lowerback
    direction 0.011325699999999999 0.99986600000000003 0.0118602
    length 1.164123
    axis 0 0 0 xyz
    dof rx ry rz 
    limits (-20 45)
           (-30 30)
           (-30 30)
  end
  begin
    id 12
    name upperback
    direction -0.016474699999999998 0.99519299999999999 -0.096537499999999998
    length 1.135656
    axis 0 0 0 xyz
    dof rx ry rz 
    limits (-20 45)
           (-30 30)
           (-30 30)
  end
  begin
    id 13
    name thorax
    direction -0.019430099999999999 0.99433000000000005 -0.10455200000000001
    length 1.1524455
    axis 0 0 0 xyz
    dof rx ry rz 
    limits (-20 45)
           (-30 30)
           (-30 30)
  end
  begin
    id 14
    name lowerneck
    direction 0.014854300000000001 0.995587 -0.092657000000000003
    length 0.772119
    axis 0 0 0 xyz
    dof rx ry rz 
    limits (-20 45)
           (-30 30)
           (-30 30)
  end
  begin
    id 15
    name upperneck
    direction -0.0135467 0.99365599999999998 -0.111639
    length 0.76021650000000007
    axis 0 0 0 xyz
    dof rx ry rz 
    limits (-20 45)
           (-30 30)
           (-30 30)
  end
  begin
    id 16
    name head
    direction -0.0061534900000000002 0.99954699999999996 -0.029447999999999998
    length 0.78578999999999999
    axis 0 0 0 xyz
    dof rx ry rz 
    limits (-20 45)
           (-30 30)
           (-30 30)
  end
  begin
    id 17
    name lclavicle
    direction 0.98826700000000001 0.14988499999999999 0.029371299999999999
    length 2.012499
    axis 0 0 0 xyz
    dof ry rz 
    limits (-20 10)
           (0 20)
  end
  begin
    id 18
    name lhumerus
    direction 1 -4.4898600000000001e-011 -1.1483300000000001e-027
    length 2.4171659999999999
    axis 180 -30 -90 xyz
    dof rx ry rz 
    limits (-60 90)
           (-90 90)
           (-90 90)
  end
  begin
    id 19
    name lradius
    direction 0.99999800000000005 0.00170963 -0.00098705499999999992
    length 1.773954
    axis 180 -30 -90 xyz
    dof rx 
    limits (-10 170)
  end
  begin
    id 20
    name lwrist
    direction 0.99999800000000005 7.53149e-005 -0.00194706
    length 0.88697700000000002
    axis 4.6505600000000004e-015 90 90 xyz
    dof ry 
    limits (-180 0)
  end
  begin
    id 21
    name lhand
    direction 1 -4.48973e-011 -1.3174599999999999e-026
    length 0.5306265
    axis 8.4064999999999996e-015 90 90 xyz
    dof rx rz 
    limits (-90 90)
           (-45 45)
  end
  begin
    id 22
    name lfingers
    direction 1 -4.49107e-011 -2.6349199999999999e-026
    length 0.42780555000000003
    axis 1.6812999999999999e-014 90 90 xyz
    dof rx 
    limits (0 90)
  end
  begin
    id 23
    name lthumb
    direction 0.70710700000000004 -6.3504800000000005e-011 0.70710700000000004
    length 0.6142455
    axis -90 45 2.8529899999999998e-015 xyz
    dof rx rz 
    limits (-45 45)
           (-45 45)
  end
  begin
    id 24
    name rclavicle
    direction -0.996699 0.064289499999999999 -0.049572499999999999
    length 2.0817494999999999
    axis 0 0 0 xyz
    dof ry rz 
    limits (-10 20)
           (-20 0)
  end
  begin
    id 25
    name rhumerus
    direction -1 -4.4891899999999998e-011 -2.4105900000000001e-027
    length 2.474145
    axis 180 30 90 xyz
    dof rx ry rz 
    limits (-90 60)
           (-90 90)
           (-90 90)
  end
  begin
    id 26
    name rradius
    direction -0.99999899999999997 0.0011810099999999999 -0.00068185800000000003
    length 1.5677145000000001
    axis 180 30 90 xyz
    dof rx 
    limits (-10 170)
  end
  begin
    id 27
    name rwrist
    direction -0.99999899999999997 0.000321823 -0.00132288
    length 0.78385499999999997
    axis 4.6505600000000004e-015 -90 -90 xyz
    dof ry 
    limits (-180 0)
  end
  begin
    id 28
    name rhand
    direction -1 -4.4902199999999998e-011 -1.3174599999999999e-026
    length 0.60719400000000001
    axis 8.4064999999999996e-015 -90 -90 xyz
    dof rx rz 
    limits (-90 90)
           (-45 45)
  end
  begin
    id 29
    name rfingers
    direction -1 -4.4917800000000002e-011 -2.6349199999999999e-026
    length 0.48953249999999998
    axis 1.6812999999999999e-014 -90 -90 xyz
    dof rx 
    limits (0 90)
  end
  begin
    id 30
    name rthumb
    direction -0.70710700000000004 -6.3471300000000002e-011 0.70710700000000004
    length 0.70287750000000004
    axis -90 -45 -2.8529899999999998e-015 xyz
    dof rx rz 
    limits (-45 45)
           (-45 45)
  end
:hierarchy
begin
  root lhipjoint rhipjoint lowerback 
  lhipjoint lfemur 
  lfemur ltibia 
  ltibia lfoot 
  lfoot ltoes 
  rhipjoint rfemur 
  rfemur rtibia 
  rtibia rfoot 
  rfoot rtoes 
  lowerback upperback 
  upperback thorax 
  thorax lowerneck lclavicle rclavicle 
  lowerneck upperneck 
  upperneck head 
  lclavicle lhumerus 
  lhumerus lradius 
  lradius lwrist 
  lwrist lhand lthumb 
  lhand lfingers 
  rclavicle rhumerus 
  rhumerus rradius 
  rradius rwrist 
  rwrist rhand rthumb 
  rhand rfingers 
end

# AMC file generated by Tido's AMC writer for MATLAB on 27-Nov-2005 at 18:24:20
# Corresponding ASF file: S:\data_MoCap\MoCaDaDB\HDM\Bonn_ASF_AMC_Use IK_on\björn\bjorn.asf
# Number of frames: 542
# Sampling rate: 120
:fully-specified
:degrees
238
root 2.1498210000000002 8.3025450000000003 -12.904335000000001 92.073700000000002 83.345299999999995 452.67500000000001 
lfemur 22.1601 11.222099999999999 -17.5275 
ltibia 12.4346 
lfoot -12.7577 -9.8393099999999993 
ltoes -24.6431 
rfemur -38.976799999999997 -18.0883 22.876899999999999 
rtibia 35.602800000000002 
rfoot -10.4772 1.89394 
rtoes 1.1406400000000001 
lowerback -5.0150499999999996 -3.83894 -5.5947199999999997 
upperback 10.2638 -3.9178799999999998 -2.3967700000000001 
thorax 14.350199999999999 -2.1379999999999999 -0.19162999999999999 
lowerneck 2.4087399999999999 -8.4079499999999996 -1.8920699999999999 
upperneck 5.8487299999999998 -11.661300000000001 11.948600000000001 
head 2.4174099999999998 -5.5979700000000001 4.0809199999999999 
lclavicle 7.96133e-014 3.2203100000000001e-014 
lhumerus -2.8380100000000001 -6.5707500000000003 72.956400000000002 
lradius 54.700400000000002 
lwrist -9.4664599999999997 
lhand -32.234200000000001 -12.1745 
lfingers 7.1250200000000001 
lthumb -5.4748799999999997 17.7347 
rclavicle 7.96133e-014 3.2203100000000001e-014 
rhumerus -81.106099999999998 -53.700400000000002 -16.4329 
rradius 10.374700000000001 
rwrist 52.758499999999998 
rhand -10.9979 9.3430400000000002 
rfingers 7.1250200000000001 
rthumb 15.022500000000001 -20.091999999999999 
239
root 2.2356900000000004 8.3022299999999998 -12.89484 88.724699999999999 83.571100000000001 449.44400000000002 
lfemur 22.698699999999999 10.9655 -17.199999999999999 
ltibia 12.763400000000001 
lfoot -11.8956 -9.6216799999999996 
ltoes -26.334599999999998 
rfemur -38.636299999999999 -17.679099999999998 22.968800000000002 
rtibia 36.433700000000002 
rfoot -9.8501499999999993 1.54121 
rtoes 3.10812 
lowerback -4.9523900000000003 -3.7811400000000002 -5.2436299999999996 
upperback 10.2562 -3.9083600000000001 -2.2693400000000001 
thorax 14.2744 -2.10806 -0.23610999999999999 
lowerneck 2.5518900000000002 -8.4498899999999999 -1.8166199999999999 
upperneck 5.7774400000000004 -11.699 11.8194 
head 2.3547699999999998 -5.625 4.0274400000000004 
lclavicle 1.6797299999999999e-014 8.3489599999999999e-015 
lhumerus -3.3319000000000001 -6.4330600000000002 73.195899999999995 
lradius 53.701000000000001 
lwrist -9.61965 
lhand -31.9574 -11.9689 
lfingers 7.1250200000000001 
lthumb -5.2075699999999996 17.947099999999999 
rclavicle 1.6797299999999999e-014 8.3489599999999999e-015 
rhumerus -84.792199999999994 -54.767600000000002 -11.961 
rradius 10.1754 
rwrist 56.171999999999997 
rhand -10.629899999999999 9.3731799999999996 
rfingers 7.1250200000000001 
rthumb 15.377000000000001 -20.035 
240
root 2.3218515000000002 8.3024100000000001 -12.883680000000002 84.708500000000001 83.789699999999996 445.55500000000001 
lfemur 23.0032 10.7163 -16.8523 
ltibia 13.5509 
lfoot -11.0405 -9.4699100000000005 
ltoes -28.028300000000002 
rfemur -38.263100000000001 -17.3352 23.128699999999998 
rtibia 37.2273 
rfoot -9.2685600000000008 1.30532 
rtoes 4.0488600000000003 
lowerback -4.8765999999999998 -3.7157399999999998 -4.8773200000000001 
upperback 10.2509 -3.8918499999999998 -2.1280600000000001 
thorax 14.1929 -2.0743200000000002 -0.27212599999999998 
lowerneck 2.61687 -8.4992999999999999 -1.8601300000000001 
upperneck 5.7720000000000002 -11.759600000000001 11.7082 
head 2.3402400000000001 -5.6609600000000002 3.99709 
lclavicle -2.66868e-014 -7.9513900000000002e-016 
lhumerus -3.85317 -6.0208300000000001 73.728300000000004 
lradius 52.546900000000001 
lwrist -10.1091 
lhand -31.6433 -11.7949 
lfingers 7.1250200000000001 
lthumb -4.90435 18.128299999999999 
rclavicle -2.66868e-014 -7.9513900000000002e-016 
rhumerus -85.075500000000005 -55.1145 -11.7845 
rradius 10.194100000000001 
rwrist 56.957900000000002 
rhand -10.1356 9.3447300000000002 
rfingers 7.1250200000000001 
rthumb 15.853 -20.026299999999999 
241
root 2.4079185000000001 8.3031299999999995 -12.8718 80.3078 83.979699999999994 441.28399999999999 
lfemur 23.0839 10.452400000000001 -16.495799999999999 
ltibia 14.729100000000001 
lfoot -10.0335 -9.4181399999999993 
ltoes -29.350999999999999 
rfemur -37.869199999999999 -17.0733 23.3246 
rtibia 37.9619 
rfoot -8.7914100000000008 1.2116 
rtoes 4.2466900000000001 
lowerback -4.7905300000000004 -3.6312000000000002 -4.4868300000000003 
upperback 10.238099999999999 -3.8496800000000002 -2.0045299999999999 
thorax 14.091799999999999 -2.0244900000000001 -0.33569900000000003 
lowerneck 2.6947800000000002 -8.5567499999999992 -1.8593900000000001 
upperneck 5.7875199999999998 -11.8302 11.582599999999999 
head 2.32694 -5.70024 3.9538199999999999 
lclavicle 4.08999e-014 -1.28216e-014 
lhumerus -4.3627599999999997 -5.7528199999999998 74.102900000000005 
lradius 51.385800000000003 
lwrist -10.374000000000001 
lhand -31.193999999999999 -11.5748 
lfingers 7.1250200000000001 
lthumb -4.4704800000000002 18.358000000000001 
rclavicle 4.08999e-014 -1.28216e-014 
rhumerus -83.661500000000004 -55.2883 -13.659800000000001 
rradius 10.216200000000001 
rwrist 56.625999999999998 
rhand -9.7725500000000007 9.0559899999999995 
rfingers 7.1250200000000001 
rthumb 16.2027 -20.286899999999999 
